# xmcd
#
# Track frame offsets:
#	150
#	7645
#	30521
#	58870
#	88496
#	113538
#	137594
#	156706
#	175874
#	193833
#	216428
#
# Disc length: 3201 seconds
#
# Revision: 0
# Processed by: cddbd v1.5.2PL0 Copyright (c) Steve Scherf et al.
# Submitted via: EasyCDDAExtractor 16.0.9.1
#
DISCID=970c7f0b
DTITLE=Relax piano - Vol. 6 - Mau Trang
DYEAR=1900
DGENRE=
TTITLE0=Loi Binh
TTITLE1=Cau Chuyen Tinh Toi
TTITLE2=Ai Ve Song Tuong
TTITLE3=Dua Em Tim Dong Hoa Vang
TTITLE4=Da Lat Hoang Hon
TTITLE5=Cay Dan Bo Quen
TTITLE6=Mau Trang
TTITLE7=Lang Toi
TTITLE8=Chi Toi
TTITLE9=Ve Que
TTITLE10=Binh Yen
EXTD=
EXTT0=
EXTT1=
EXTT2=
EXTT3=
EXTT4=
EXTT5=
EXTT6=
EXTT7=
EXTT8=
EXTT9=
EXTT10=
PLAYORDER=
